<svg height="484pt" viewBox="0 -7 484.856 484" width="484pt" xmlns="http://www.w3.org/2000/svg"><path d="m133.65625 470.085938h80v-233.042969c-27.984375-13.042969-54.753906-28.542969-80-46.320313zm0 0" fill="#ffcd00"/><path d="m5.65625 74.003906v396.082032h80v-317.441407c-7.679688-6.800781-15.199219-13.839843-22.558594-21.199219zm0 0" fill="#5eac24"/><path d="m261.65625 470.085938h80v-192.480469c-27.1875-4.863281-53.9375-11.898438-80-21.042969zm0 0" fill="#ab2300"/><path d="m389.65625 284.003906v186.082032h80v-184h-33.199219c-15.679687 0-31.359375-.722657-46.800781-2.082032zm0 0" fill="#00b6bd"/><path d="m431.929688 205.339844-8.425782 13.601562 18.007813 11.144532h-5.054688c-14.832031 0-30.320312-.746094-46.007812-2.203126-15.816407-1.597656-31.695313-3.949218-47.203125-7.078124-26.859375-5.433594-53.195313-13.195313-78.710938-23.199219-16.140625-6.230469-31.898437-13.402344-47.199218-21.480469-27.902344-14.582031-54.253907-31.949219-78.65625-51.839844-12.53125-10.175781-24.527344-20.988281-35.945313-32.402344l-91.421875-91.453124-11.3125 11.308593 91.441406 91.441407c11.800782 11.804687 24.207032 22.988281 37.167969 33.503906 25.222656 20.566406 52.464844 38.527344 81.3125 53.601562 15.8125 8.359375 32.109375 15.78125 48.796875 22.222656 26.367188 10.355469 53.589844 18.386719 81.351562 24 16 3.199219 32.441407 5.695313 48.800782 7.320313 16.234375 1.503906 32.226562 2.273437 47.542968 2.273437h5.058594l-18.007812 11.132813 8.421875 13.601563 52.96875-32.75zm0 0" fill="#cd2a00"/></svg>